<svg xmlns="http://www.w3.org/2000/svg" viewBox="0 0 300.84 59.08"><defs><style>.cls-1,.cls-3{fill:#f1d100;}.cls-2{fill:#fff;}.cls-3{font-size:36.07px;font-family:ErasITC-Bold, Eras Bold ITC;}</style></defs><title>icon + yellow text</title><g id="Layer_2" data-name="Layer 2"><g id="Layer_1-2" data-name="Layer 1"><circle class="cls-1" cx="42.21" cy="29.54" r="29.54"/><circle class="cls-2" cx="51.14" cy="39.74" r="2.69"/><circle class="cls-2" cx="60.81" cy="35" r="2.69"/><path class="cls-2" d="M61.26,29.77,46.74,36.89a.9.9,0,0,1-1.07-.21L35,24.65l-3.48,1.7a.89.89,0,0,1-1.2-.41.9.9,0,0,1,.42-1.2l4.08-2a.89.89,0,0,1,1.07.21l2,2.27,20.33-10a.89.89,0,0,1,1.27.66l2.25,12.89A.87.87,0,0,1,61.26,29.77Z"/><path class="cls-2" d="M10.8,25.14s-3.74,2.29-4.64,4.92S4.88,36.7,12.36,37a49.42,49.42,0,0,0,22.32-4.23c.34.43.83,1,1.1,1.4a56.9,56.9,0,0,1-10,4.33c-5.22,1.78-11,3.07-16.59,2.69H9.15a12.88,12.88,0,0,1-6-1.69A7.19,7.19,0,0,1,0,34.28,8.3,8.3,0,0,1,2.52,28a25,25,0,0,1,5.89-4.75,24.12,24.12,0,0,1,3.19-1.56"/><path class="cls-2" d="M3.46,44.19a7.21,7.21,0,0,0,3.8,4.73,13,13,0,0,0,6.12.91h.09C19,49.49,24.62,47.46,29.57,45A74.58,74.58,0,0,0,40.21,38.6c-.3-.39-.76-.84-1.16-1.3a52.56,52.56,0,0,1-23,8.18s-5.5,1-6.65-1.09Z"/><text class="cls-3" transform="translate(86.38 40.06)">Bubuplanet</text></g></g></svg>